HIERARCHY
ROOT Hips
{
  OFFSET 0.0502701 92.146 0
  CHANNELS 6 Xposition Yposition Zposition Zrotation Xrotation Yrotation
  JOINT Bip01_Pelvis
  {
    OFFSET 0 0 0
    CHANNELS 6 Xposition Yposition Zposition Zrotation Xrotation Yrotation
    JOINT BN_Tai_01
    {
      OFFSET -4.6544 -2.06234 0
      CHANNELS 6 Xposition Yposition Zposition Zrotation Xrotation Yrotation
      JOINT BN_Tai_R_01
      {
        OFFSET 10.2279 -0.119812 3.68897
        CHANNELS 6 Xposition Yposition Zposition Zrotation Xrotation Yrotation
        JOINT BN_Tai_R_02
        {
          OFFSET 15.0421 0 1.52588e-005
          CHANNELS 6 Xposition Yposition Zposition Zrotation Xrotation Yrotation
          End Site
          {
            OFFSET 0 0 0
          }
        }
      }
      JOINT BN_Tai_L_01
      {
        OFFSET 10.2279 -0.119797 -3.68907
        CHANNELS 6 Xposition Yposition Zposition Zrotation Xrotation Yrotation
        JOINT BN_Tai_L_02
        {
          OFFSET 15.0421 0 0
          CHANNELS 6 Xposition Yposition Zposition Zrotation Xrotation Yrotation
          End Site
          {
            OFFSET 0 0 0
          }
        }
      }
    }
    JOINT Bip01_Spine
    {
      OFFSET 2.7319 1.49192 0
      CHANNELS 6 Xposition Yposition Zposition Zrotation Xrotation Yrotation
      JOINT Bip01_R_Thigh
      {
        OFFSET -2.85206 -1.24717 -6.20578
        CHANNELS 6 Xposition Yposition Zposition Zrotation Xrotation Yrotation
        JOINT Bip01_R_Calf
        {
          OFFSET 6.73247 0 0
          CHANNELS 6 Xposition Yposition Zposition Zrotation Xrotation Yrotation
          JOINT Bip01_R_HorseLink
          {
            OFFSET 8.08523 0 0
            CHANNELS 6 Xposition Yposition Zposition Zrotation Xrotation Yrotation
            JOINT Bip01_R_Foot
            {
              OFFSET 8.97518 0 0
              CHANNELS 6 Xposition Yposition Zposition Zrotation Xrotation Yrotation
              JOINT BN_Toe_R_30
              {
                OFFSET 1.58762 -0.234982 -0.295153
                CHANNELS 6 Xposition Yposition Zposition Zrotation Xrotation Yrotation
                JOINT BN_Toe_R_31
                {
                  OFFSET 3.03849 0 0
                  CHANNELS 6 Xposition Yposition Zposition Zrotation Xrotation Yrotation
                  End Site
                  {
                    OFFSET 0 0 0
                  }
                }
              }
              JOINT BN_Toe_R_00
              {
                OFFSET 1.65463 0.933666 1.02414
                CHANNELS 6 Xposition Yposition Zposition Zrotation Xrotation Yrotation
                JOINT BN_Toe_R_01
                {
                  OFFSET 3.51775 0 0
                  CHANNELS 6 Xposition Yposition Zposition Zrotation Xrotation Yrotation
                  End Site
                  {
                    OFFSET 0 0 0
                  }
                }
              }
              JOINT BN_Toe_R_20
              {
                OFFSET 1.47309 1.0106 -1.16708
                CHANNELS 6 Xposition Yposition Zposition Zrotation Xrotation Yrotation
                JOINT BN_Toe_R_21
                {
                  OFFSET 3.94896 0 0
                  CHANNELS 6 Xposition Yposition Zposition Zrotation Xrotation Yrotation
                  End Site
                  {
                    OFFSET 0 0 0
                  }
                }
              }
              JOINT BN_Toe_R_10
              {
                OFFSET 1.07522 1.64225 0.0223596
                CHANNELS 6 Xposition Yposition Zposition Zrotation Xrotation Yrotation
                JOINT BN_Toe_R_11
                {
                  OFFSET 4.09655 0 0
                  CHANNELS 6 Xposition Yposition Zposition Zrotation Xrotation Yrotation
                  End Site
                  {
                    OFFSET 0 0 0
                  }
                }
              }
              JOINT Bip01_R_Toe0
              {
                OFFSET 2.04238 1.88275 0
                CHANNELS 6 Xposition Yposition Zposition Zrotation Xrotation Yrotation
                End Site
                {
                  OFFSET 0 0 0
                }
              }
            }
          }
        }
      }
      JOINT Bip01_L_Thigh
      {
        OFFSET -2.85154 -1.24849 6.20577
        CHANNELS 6 Xposition Yposition Zposition Zrotation Xrotation Yrotation
        JOINT Bip01_L_Calf
        {
          OFFSET 6.73247 0 0
          CHANNELS 6 Xposition Yposition Zposition Zrotation Xrotation Yrotation
          JOINT Bip01_L_HorseLink
          {
            OFFSET 8.08524 0 0
            CHANNELS 6 Xposition Yposition Zposition Zrotation Xrotation Yrotation
            JOINT Bip01_L_Foot
            {
              OFFSET 8.97521 0 0
              CHANNELS 6 Xposition Yposition Zposition Zrotation Xrotation Yrotation
              JOINT BN_Toe_L_00
              {
                OFFSET 1.65461 0.933701 -1.02419
                CHANNELS 6 Xposition Yposition Zposition Zrotation Xrotation Yrotation
                JOINT BN_Toe_L_01
                {
                  OFFSET 3.51778 0 0
                  CHANNELS 6 Xposition Yposition Zposition Zrotation Xrotation Yrotation
                  End Site
                  {
                    OFFSET 0 0 0
                  }
                }
              }
              JOINT BN_Toe_L_10
              {
                OFFSET 1.07523 1.6422 -0.0221281
                CHANNELS 6 Xposition Yposition Zposition Zrotation Xrotation Yrotation
                JOINT BN_Toe_L_11
                {
                  OFFSET 4.09657 0 0
                  CHANNELS 6 Xposition Yposition Zposition Zrotation Xrotation Yrotation
                  End Site
                  {
                    OFFSET 0 0 0
                  }
                }
              }
              JOINT BN_Toe_L_30
              {
                OFFSET 1.58761 -0.234954 0.295135
                CHANNELS 6 Xposition Yposition Zposition Zrotation Xrotation Yrotation
                JOINT BN_Toe_L_31
                {
                  OFFSET 3.03847 0 0
                  CHANNELS 6 Xposition Yposition Zposition Zrotation Xrotation Yrotation
                  End Site
                  {
                    OFFSET 0 0 0
                  }
                }
              }
              JOINT BN_Toe_L_20
              {
                OFFSET 1.4731 1.01055 1.1673
                CHANNELS 6 Xposition Yposition Zposition Zrotation Xrotation Yrotation
                JOINT BN_Toe_L_21
                {
                  OFFSET 3.94897 0 0
                  CHANNELS 6 Xposition Yposition Zposition Zrotation Xrotation Yrotation
                  End Site
                  {
                    OFFSET 0 0 0
                  }
                }
              }
              JOINT Bip01_L_Toe0
              {
                OFFSET 2.04238 1.88276 0
                CHANNELS 6 Xposition Yposition Zposition Zrotation Xrotation Yrotation
                End Site
                {
                  OFFSET 0 0 0
                }
              }
            }
          }
        }
      }
      JOINT Bip01_Spine1
      {
        OFFSET 8.6167 -0.00679016 0
        CHANNELS 6 Xposition Yposition Zposition Zrotation Xrotation Yrotation
        JOINT BN_Wing_R_01
        {
          OFFSET 0.267445 -6.12421 -7.49305
          CHANNELS 6 Xposition Yposition Zposition Zrotation Xrotation Yrotation
          JOINT BN_Wing_R_02
          {
            OFFSET 14.7158 0 0
            CHANNELS 6 Xposition Yposition Zposition Zrotation Xrotation Yrotation
            JOINT BN_Wing_R_03
            {
              OFFSET 19.0858 0 0
              CHANNELS 6 Xposition Yposition Zposition Zrotation Xrotation Yrotation
              JOINT BN_Wing_R_05
              {
                OFFSET 2.68908 -0.270637 0.785261
                CHANNELS 6 Xposition Yposition Zposition Zrotation Xrotation Yrotation
                JOINT BN_Wing_R_06
                {
                  OFFSET 21.1083 0 0
                  CHANNELS 6 Xposition Yposition Zposition Zrotation Xrotation Yrotation
                  End Site
                  {
                    OFFSET 0 0 0
                  }
                }
              }
              JOINT BN_Wing_R_04
              {
                OFFSET 27.642 0 0
                CHANNELS 6 Xposition Yposition Zposition Zrotation Xrotation Yrotation
                End Site
                {
                  OFFSET 0 0 0
                }
              }
            }
          }
        }
        JOINT BN_Wing_L_01
        {
          OFFSET 0.267452 -6.12421 7.49305
          CHANNELS 6 Xposition Yposition Zposition Zrotation Xrotation Yrotation
          JOINT BN_Wing_L_02
          {
            OFFSET 14.7158 0 0
            CHANNELS 6 Xposition Yposition Zposition Zrotation Xrotation Yrotation
            JOINT BN_Wing_L_03
            {
              OFFSET 19.0858 0 0
              CHANNELS 6 Xposition Yposition Zposition Zrotation Xrotation Yrotation
              JOINT BN_Wing_L_05
              {
                OFFSET 2.68908 -0.270635 -0.785254
                CHANNELS 6 Xposition Yposition Zposition Zrotation Xrotation Yrotation
                JOINT BN_Wing_L_06
                {
                  OFFSET 21.1083 0 0
                  CHANNELS 6 Xposition Yposition Zposition Zrotation Xrotation Yrotation
                  End Site
                  {
                    OFFSET 0 0 0
                  }
                }
              }
              JOINT BN_Wing_L_04
              {
                OFFSET 27.642 0 1.14441e-005
                CHANNELS 6 Xposition Yposition Zposition Zrotation Xrotation Yrotation
                End Site
                {
                  OFFSET 0 0 0
                }
              }
            }
          }
        }
        JOINT Bip01_Neck
        {
          OFFSET 7.59958 -1.43237 0
          CHANNELS 6 Xposition Yposition Zposition Zrotation Xrotation Yrotation
          JOINT Bip01_Neck1
          {
            OFFSET 3.64749 -0.00262451 0
            CHANNELS 6 Xposition Yposition Zposition Zrotation Xrotation Yrotation
            JOINT Bip01_Neck2
            {
              OFFSET 3.32331 -0.00284576 0
              CHANNELS 6 Xposition Yposition Zposition Zrotation Xrotation Yrotation
              JOINT Bip01_Head
              {
                OFFSET 4.63256 -0.573471 0
                CHANNELS 6 Xposition Yposition Zposition Zrotation Xrotation Yrotation
                JOINT BN_Jaw
                {
                  OFFSET 1.05386 2.23561 0
                  CHANNELS 6 Xposition Yposition Zposition Zrotation Xrotation Yrotation
                  End Site
                  {
                    OFFSET 0 0 0
                  }
                }
              }
            }
          }
        }
      }
    }
  }
}
MOTION
Frames:	4
Frame Time:	0.0333333
-0.133723 94.2184 0 135.356 -90 178.179 0 0 0 -89.9946 9.5772 -89.9948 -4.6544 -2.06235 0 -8.12547 1.94851 179.532 10.228 -0.119785 3.68891 28.6032 80.8654 -27.8416 15.0421 -2.38419e-007 1.14441e-005 5.14665 -4.542 9.38255 10.2278 -0.119782 -3.68914 -138.507 78.4916 143.9 15.0421 4.76837e-007 3.8147e-006 -5.15014 4.54172 9.38269 3.04981 0.62859 -9.31323e-010 -8.20786 2.4702e-006 -1.71255e-005 -7.6294e-006 -7.6294e-006 -6.20578 -173.996 -21.4366 176.293 6.73249 -7.10543e-015 5.72205e-006 -117.413 -1.34886e-005 5.18939e-006 8.08523 -1.14441e-005 1.90735e-006 116.106 6.81912e-007 -5.23794e-007 8.97521 3.8147e-006 -1.90735e-006 -74.8203 -0.0604694 -24.4816 1.58763 -0.234993 -0.295153 146.154 0.761155 166.358 3.03846 0 -3.8147e-006 -45.9883 -5.39525e-006 8.43141e-006 1.65462 0.933647 1.02414 71.7281 27.4578 -45.3025 3.51774 0 0 31.7752 1.24034e-005 -7.60839e-006 1.4731 1.0106 -1.16708 66.6448 -8.00171 30.8802 3.94896 -3.8147e-006 -7.10543e-015 32.8748 6.56282e-006 7.22254e-006 1.07522 1.64224 0.0223598 54.8099 -6.18649 -1.0778 4.09657 -7.6294e-006 4.76837e-007 56.2688 6.86201e-006 -7.76328e-006 2.04238 1.88277 1.77636e-015 87.4729 -2.52844 27.7808 0 -3.8147e-006 6.20577 -127.734 11.0933 171.28 6.73248 7.6294e-006 9.53674e-007 -83.9793 -1.06921e-005 -5.37011e-006 8.08526 -7.10543e-015 0 113.362 5.8776e-006 1.59747e-005 8.9752 7.10542e-015 1.77636e-015 -48.9875 4.93519 9.52306 1.65462 0.933708 -1.02418 66.714 -31.6813 42.8255 3.51775 3.81469e-006 7.62939e-006 47.7875 -1.50912e-005 2.58081e-005 1.07522 1.6422 -0.0221214 66.4582 -3.31651 6.53567 4.09656 -3.81469e-006 -9.53674e-007 50.5759 6.24285e-006 8.50558e-006 1.58763 -0.234955 0.295141 135.264 5.7028 -177.038 3.03848 1.42108e-014 -9.53674e-007 -38.7373 6.81152e-006 6.02779e-006 1.4731 1.01057 1.16731 66.8811 5.45928 -10.7952 3.94895 1.90735e-006 0 48.5268 1.13179e-006 3.38104e-008 2.04238 1.88279 4.44089e-016 120.306 0.489714 -30.702 8.61718 -0.0068512 -1.73472e-018 -4.08905 1.12266e-005 -1.65445e-005 0.267456 -6.12425 -7.49305 -69.5951 -2.51832 27.042 14.7158 1.52588e-005 -3.55271e-015 51.381 5.15706 -4.82037 19.0859 -9.53674e-007 -1.90735e-006 -36.6053 -2.24683 23.928 2.6891 -0.270637 0.785278 -43.8612 2.4697 4.79228 21.1083 1.42108e-014 -3.8147e-006 -1.32056 -2.34539 36.8282 27.642 7.62939e-006 -7.62939e-006 -2.63525 -0.0479275 40.8152 0.267464 -6.12425 7.49305 -69.5951 2.51833 -27.042 14.7158 -7.62939e-006 7.62939e-006 51.381 -5.15707 4.82036 19.0859 0 5.72205e-006 -36.6088 2.24872 -23.9313 2.68863 -0.270195 -0.785652 -43.8612 -2.4697 -4.79228 21.1083 0.00204468 -0.00101471 -1.31726 2.34429 -36.8246 27.642 0.00260925 -0.00118256 -2.63095 0.0497514 -40.8151 7.59942 -1.43242 -1.73472e-018 3.77414 6.59452e-007 9.99597e-006 3.64919 -0.0022583 1.86265e-009 31.3246 8.55778e-006 -5.20839e-006 3.32335 -0.00286102 -9.31323e-010 -4.46352 6.28383e-010 1.16918e-010 4.63259 -0.573471 0 -7.21592 8.68055e-006 1.11971e-005 1.05387 2.2356 -1.86265e-009 -79.0055 -0.0312347 -179.962 
-0.125612 93.7399 6.13285e-008 -132.143 -90 -90 0 0 0 -89.9947 9.75043 -89.9948 -4.6544 -2.06235 2.14759e-015 -7.71603 1.94514 179.518 10.228 -0.119785 3.68891 32.1575 80.8256 -32.7443 15.0421 -2.38419e-007 1.14441e-005 5.09531 -4.55375 8.58726 10.2278 -0.119782 -3.68914 -136.44 78.4157 140.494 15.0421 4.76837e-007 3.8147e-006 -5.10789 4.55105 8.80399 3.04751 0.638343 -9.3132e-010 -8.71765 2.62247e-006 -1.71028e-005 -7.6294e-006 -7.6294e-006 -6.20578 -174.803 -21.4655 176.291 6.73249 -7.10543e-015 5.72205e-006 -118.254 -1.35634e-005 4.9908e-006 8.08523 -1.14441e-005 1.90735e-006 116.987 6.82072e-007 -5.38443e-007 8.97521 3.8147e-006 -1.90735e-006 -76.3967 0.495729 -24.7476 1.58763 -0.234993 -0.295153 145.518 0.889157 166.375 3.03846 -2.84217e-014 -3.8147e-006 -44.6325 1.29234e-006 1.90947e-006 1.65462 0.933647 1.02414 72.9941 26.2791 -45.8353 3.51774 1.42109e-014 0 33.8534 1.25137e-005 -7.95523e-006 1.4731 1.0106 -1.16708 66.5974 -8.02899 30.5473 3.94896 -3.8147e-006 2.13163e-014 32.7553 0.00108936 0.474638 1.07522 1.64224 0.0223598 56.4036 -6.20897 -0.902406 4.09657 -7.6294e-006 4.76837e-007 57.8779 5.93022e-006 -8.38784e-006 2.04238 1.88277 -1.80869e-011 87.9971 -2.48275 27.8022 -1.42109e-014 -3.8147e-006 6.20577 -130.116 11.5437 171.634 6.73248 7.6294e-006 9.53674e-007 -86.9301 -4.79585e-007 -6.45709e-006 8.08526 -7.10543e-015 7.10543e-015 113.451 5.88026e-006 1.58953e-005 8.9752 7.10542e-015 0 -48.372 5.03721 9.66146 1.65462 0.933708 -1.02418 66.2532 -32.1187 42.4994 3.51775 3.81469e-006 7.62939e-006 49.4971 -0.00241798 -0.00202637 1.07522 1.6422 -0.0221214 65.8345 -3.38409 6.5008 4.09656 -3.81469e-006 -9.53674e-007 52.919 -8.37156e-007 2.6825e-006 1.58763 -0.234955 0.295141 136.453 5.72178 -177.172 3.03848 -2.84217e-014 -9.53674e-007 -35.6354 7.62197e-006 5.03879e-006 1.4731 1.01057 1.16731 66.7866 5.68967 -11.114 3.94895 1.90735e-006 7.10543e-015 51.2296 1.23596e-006 -9.38845e-009 2.04238 1.88279 -2.25157e-010 120.677 0.453121 -30.696 8.61718 -0.0068512 6.93889e-018 -3.81611 1.11477e-005 -1.65978e-005 0.267456 -6.12425 -7.49305 -67.7896 -2.69606 27.3983 14.7158 1.52588e-005 -3.55271e-015 46.1442 4.32293 -4.11107 19.0858 -9.53674e-007 -1.90735e-006 -31.0735 3.49365 16.6221 2.6891 -0.270637 0.785278 -43.9154 2.51036 3.95103 21.1083 -7.10542e-014 -3.8147e-006 -1.4995 -2.29828 33.6854 27.642 7.62939e-006 -7.62939e-006 -1.41024 -0.333171 40.3689 0.267464 -6.12425 7.49305 -67.6123 2.84451 -27.436 14.7158 -7.62939e-006 7.62939e-006 46.1442 -4.32293 4.11107 19.0859 -1.06581e-014 5.72205e-006 -31.0735 -3.49365 -16.6221 2.68862 -0.2702 -0.785657 -43.9681 -2.50793 -5.04915 21.1083 0.00204468 -0.00101471 -1.49522 2.3006 -33.6819 27.642 0.00260925 -0.00118256 -1.41033 0.333069 -40.3689 7.59942 -1.43242 -1.66533e-016 5.21684 9.10914e-007 9.9762e-006 3.64919 -0.0022583 1.86265e-009 29.9233 8.68259e-006 -4.99755e-006 3.32335 -0.00286102 -9.31323e-010 -3.91831 6.29483e-010 1.10936e-010 4.63259 -0.573471 -7.63278e-017 -7.1749 8.68857e-006 1.11908e-005 1.05387 2.2356 -1.86264e-009 -78.1128 -0.0290375 -179.962 
-0.104973 93.2306 1.24821e-007 137.326 -90 178.605 0 0 0 -89.9947 10.2074 -89.9948 -4.6544 -2.06235 1.48145e-015 -7.28906 1.94149 179.504 10.228 -0.119785 3.68891 37.0426 80.5486 -39.0178 15.0421 -2.38419e-007 1.14441e-005 4.973 -4.57829 6.50094 10.2278 -0.119782 -3.68914 -133.613 78.145 136.281 15.0421 4.76837e-007 3.8147e-006 -5.00219 4.57271 7.27747 3.04241 0.662438 -9.31314e-010 -9.20393 2.76753e-006 -1.70799e-005 -7.6294e-006 -7.6294e-006 -6.20578 -173.995 -21.5354 176.672 6.73249 -7.10543e-015 5.72205e-006 -118.383 -4.76082e-006 9.7225e-006 8.08523 -1.14441e-005 1.90735e-006 118.677 2.71674e-007 -3.42701e-007 8.97521 3.8147e-006 -1.90735e-006 -78.4438 1.03667 -24.9767 1.58763 -0.234993 -0.295153 144.098 1.19689 166.416 3.03846 -2.84217e-014 -3.8147e-006 -43.303 -5.15411e-006 8.65746e-006 1.65462 0.933647 1.02414 74.5 24.8099 -46.395 3.51774 0 0 36.8189 1.52219e-005 -4.8462e-006 1.4731 1.0106 -1.16708 66.4703 -8.10867 29.6988 3.94896 -3.8147e-006 7.10543e-015 32.4375 -0.000103732 1.69003 1.07522 1.64224 0.0223598 58.508 -6.22694 -0.667675 4.09657 -7.6294e-006 4.76837e-007 60.386 5.54427e-006 -8.62729e-006 2.04238 1.88277 -3.67528e-011 88.5111 -2.43773 27.8229 5.68434e-014 -3.8147e-006 6.20577 -132.726 12.133 172.001 6.73248 7.6294e-006 9.53674e-007 -90.7355 -1.14841e-006 -6.49266e-006 8.08526 1.42109e-014 7.10543e-015 113.989 6.81739e-006 1.53836e-005 8.9752 7.10543e-015 0 -48.5539 4.98031 10.0011 1.65462 0.933708 -1.02418 65.027 -33.269 41.6723 3.51775 3.81469e-006 7.62939e-006 51.1734 -0.0049022 -0.00390742 1.07522 1.6422 -0.0221214 64.2011 -3.56652 6.40269 4.09656 -3.81469e-006 -9.53674e-007 55.2166 -1.36893e-006 2.26197e-006 1.58763 -0.234955 0.295141 139.446 5.82031 -177.482 3.03848 -4.26325e-014 -9.53674e-007 -31.677 8.02198e-006 4.53417e-006 1.4731 1.01057 1.16731 66.558 6.28776 -11.9437 3.94895 1.90735e-006 1.06581e-014 53.8798 1.41672e-006 -1.01304e-007 2.04238 1.88279 -5.82826e-010 121.04 0.417264 -30.6898 8.61718 -0.0068512 3.46945e-018 -3.10936 1.09421e-005 -1.67341e-005 0.267456 -6.12425 -7.49305 -66.775 -1.89015 28.3139 14.7158 1.52588e-005 1.06581e-014 40.9702 3.05984 -2.34585 19.0858 -9.53674e-007 -1.90735e-006 -25.7199 8.80202 7.16614 2.6891 -0.270637 0.785278 -43.9485 2.61371 3.28416 21.1083 2.84217e-014 -3.8147e-006 -1.87697 -2.11589 25.7761 27.642 7.62939e-006 -7.6294e-006 1.30154 -0.925215 40.0668 0.267464 -6.12425 7.49305 -66.5242 2.08288 -28.3668 14.7158 -7.62939e-006 7.62939e-006 40.9702 -3.05984 2.34584 19.0859 -1.42109e-014 5.72205e-006 -25.72 -8.80202 -7.16614 2.68862 -0.270195 -0.785655 -43.9958 -2.611 -4.28094 21.1082 0.00204468 -0.00101471 -1.87696 2.11591 -25.7761 27.642 0.00260925 -0.00118256 1.30149 0.925167 -40.0668 7.59942 -1.43242 2.94903e-016 7.06175 1.23162e-006 9.9417e-006 3.64919 -0.0022583 1.86265e-009 27.1896 8.91106e-006 -4.57775e-006 3.32335 -0.00286102 -9.31323e-010 -2.93094 6.31259e-010 1.00071e-010 4.63259 -0.573471 4.85723e-017 -6.57127 8.80598e-006 1.10987e-005 1.05387 2.2356 -1.86264e-009 -77.2374 -0.0268555 -179.962 
-0.0755067 92.7121 1.88216e-007 137.441 -90 177.735 0 0 0 -89.9948 10.8884 -89.9948 -4.6544 -2.06235 1.57686e-015 -6.85784 1.9377 179.489 10.228 -0.119785 3.68891 42.3278 80.029 -45.6942 15.0421 -2.38419e-007 1.14441e-005 4.80182 -4.60749 3.392 10.2278 -0.119782 -3.68914 -130.478 77.7031 131.759 15.0421 4.76837e-007 3.8147e-006 -4.86033 4.60088 4.96801 3.03404 0.698404 -9.31302e-010 -9.65309 2.90134e-006 -1.70577e-005 -7.6294e-006 -7.6294e-006 -6.20578 -171.883 -21.6423 177.352 6.73249 -1.42109e-014 5.72205e-006 -117.906 -4.67983e-006 9.76174e-006 8.08523 -1.14441e-005 1.90735e-006 120.944 2.57907e-007 -3.53178e-007 8.97521 3.8147e-006 -1.90735e-006 -80.7766 1.53188 -25.1583 1.58763 -0.234993 -0.295153 142.136 1.68945 166.505 3.03846 0 -3.8147e-006 -41.9604 1.13621e-006 1.86454e-006 1.65462 0.933647 1.02414 76.1766 23.1444 -47.0075 3.51774 7.10543e-015 0 40.4611 -0.00567238 -0.00667415 1.4731 1.0106 -1.16708 66.278 -8.22617 28.4909 3.94896 -3.8147e-006 2.84217e-014 31.7669 0.0329573 3.54933 1.07522 1.64224 0.0223598 60.9499 -6.24194 -0.398055 4.09657 -7.6294e-006 4.76837e-007 63.6215 5.83112e-006 -8.51293e-006 2.04238 1.88277 -5.92486e-011 89.7625 -2.32584 27.871 0 -3.8147e-006 6.20577 -135.396 12.7411 172.408 6.73248 7.6294e-006 9.53674e-007 -95.081 1.59086e-007 -6.47776e-006 8.08526 7.10543e-015 7.99361e-015 114.854 7.00045e-006 1.51817e-005 8.9752 0 8.88179e-016 -49.3399 4.78351 10.4851 1.65462 0.933708 -1.02418 63.2619 -34.9295 40.4245 3.51775 3.81469e-006 7.62939e-006 52.8663 -0.00749755 -0.00564105 1.07522 1.6422 -0.0221214 61.9544 -3.81674 6.25726 4.09656 -3.81469e-006 -9.53674e-007 57.7499 -1.22035e-006 2.29519e-006 1.58763 -0.234955 0.295141 143.807 5.92334 -177.949 3.03848 -4.26325e-014 -9.53674e-007 -27.6794 8.42872e-006 4.01633e-006 1.4731 1.01057 1.16731 66.2352 7.17505 -13.1901 3.94895 1.90735e-006 7.10543e-015 56.5563 1.00213e-005 5.2873e-006 2.04238 1.88279 -9.39215e-010 121.938 0.33083 -30.6767 8.61718 -0.0068512 0 -2.07743 1.06389e-005 -1.69284e-005 0.267456 -6.12425 -7.49305 -66.279 -0.426928 29.7721 14.7158 1.52588e-005 1.06581e-014 36.0994 1.53337 0.0888367 19.0858 -9.53674e-007 -1.90735e-006 -20.0214 13.2858 -3.72403 2.6891 -0.270637 0.785278 -43.9597 2.75655 2.68582 21.1083 2.84217e-014 -3.8147e-006 -2.27169 -1.71814 14.7097 27.642 7.62939e-006 -7.6294e-006 4.29183 -1.50488 39.1298 0.267464 -6.12425 7.49305 -66.0401 0.609854 -29.8202 14.7158 -7.62939e-006 7.62939e-006 36.0994 -1.53337 -0.0888386 19.0859 1.77636e-014 5.72205e-006 -20.0214 -13.2858 3.72404 2.68862 -0.270195 -0.785657 -43.9704 -2.75708 -2.89011 21.1082 0.00204468 -0.00101471 -2.2717 1.71814 -14.7097 27.642 0.00260925 -0.00118256 4.2918 1.50486 -39.1298 7.59942 -1.43242 2.61943e-016 9.15108 1.59325e-006 9.89019e-006 3.64919 -0.0022583 1.86265e-009 23.526 9.18536e-006 -3.999e-006 3.32335 -0.00286102 -9.31323e-010 -1.60875 6.33403e-010 8.54775e-011 4.63259 -0.573471 -1.56125e-017 -5.55567 9.00132e-006 1.09409e-005 1.05387 2.2356 -1.86265e-009 -76.3533 -0.0246124 -179.962 
